<?xml version="1.0" encoding="UTF-8"?>
<!DOCTYPE svg PUBLIC "-//W3C//DTD SVG 1.1//EN" "http://www.w3.org/Graphics/SVG/1.1/DTD/svg11.dtd">
<!-- Creator: CorelDRAW (Versão OEM) -->
<svg xmlns="http://www.w3.org/2000/svg" xml:space="preserve" width="18.0976mm" height="5.8269mm" version="1.1" style="shape-rendering:geometricPrecision; text-rendering:geometricPrecision; image-rendering:optimizeQuality; fill-rule:evenodd; clip-rule:evenodd"
viewBox="0 0 184.76 59.49"
 xmlns:xlink="http://www.w3.org/1999/xlink"
 xmlns:xodm="http://www.corel.com/coreldraw/odm/2003">
 <defs>
  <style type="text/css">
   <![CDATA[
    .fil0 {fill:#FFF315}
    .fil1 {fill:white}
   ]]>
  </style>
 </defs>
 <g id="Camada_x0020_1">
  <metadata id="CorelCorpID_0Corel-Layer"/>
  <path class="fil0" d="M17.55 35.29c-0.58,0.2 -1.19,0.36 -1.83,0.45 -0.64,0.1 -1.33,0.14 -2.07,0.14 -4.55,0 -8.07,-1.63 -10.56,-4.9 -2.49,-3.28 -3.47,-7.53 -2.95,-12.78 0.52,-5.27 2.42,-9.61 5.67,-13.05 3.26,-3.44 7.15,-5.15 11.66,-5.15 0.52,0 1.07,0.04 1.64,0.12 0.57,0.07 1.16,0.2 1.77,0.38l-0.62 10.28c-0.65,-0.36 -1.3,-0.63 -1.94,-0.81 -0.65,-0.17 -1.28,-0.26 -1.9,-0.26 -2.26,0 -4.18,0.77 -5.76,2.3 -1.58,1.54 -2.49,3.49 -2.72,5.86 -0.23,2.35 0.28,4.32 1.53,5.91 1.26,1.59 2.94,2.38 5.06,2.38 0.76,0 1.53,-0.12 2.31,-0.36 0.77,-0.23 1.55,-0.58 2.33,-1.04l-1.62 10.53zm14.57 -12.37l6.13 0 -1.88 -12.08 -4.25 12.08zm-12.62 12.96l13.97 -35.81 8.71 0 6.29 35.81 -8.18 0 -0.68 -4.02 -10.54 0 -1.54 4.02 -8.04 0zm29.45 -0.15l7.31 -35.74 6.27 0 3.66 15.89 6.9 -15.89 6.11 0 0.69 35.74 -7.94 0 -0.03 -16.41 -7.39 16.56 -4.59 -16.56 -3.05 16.41 -7.94 0zm41.83 0.15l-7.71 0 3.56 -35.81 7.71 0 -3.56 35.81zm4.63 -0.45l0.75 -9.56c0.54,0.28 1.05,0.5 1.55,0.65 0.5,0.15 0.98,0.23 1.44,0.23 0.83,0 1.54,-0.26 2.11,-0.79 0.58,-0.52 0.9,-1.17 0.98,-1.94 0.1,-1.03 -0.48,-2.33 -1.76,-3.91 -0.44,-0.53 -0.77,-0.96 -1,-1.28 -0.89,-1.24 -1.52,-2.51 -1.88,-3.82 -0.36,-1.31 -0.46,-2.73 -0.31,-4.24 0.31,-3.12 1.47,-5.67 3.48,-7.68 2.02,-2.01 4.47,-3.01 7.34,-3.01 0.91,0 1.76,0.07 2.54,0.21 0.78,0.15 1.53,0.36 2.23,0.66l-0.86 8.61c-0.59,-0.38 -1.15,-0.66 -1.67,-0.86 -0.53,-0.19 -1,-0.28 -1.41,-0.28 -0.95,0 -1.7,0.23 -2.25,0.71 -0.55,0.47 -0.87,1.14 -0.96,2.02 -0.1,0.98 0.48,2.12 1.73,3.43 0.5,0.54 0.88,0.97 1.15,1.29 1,1.17 1.72,2.51 2.16,4.03 0.44,1.51 0.56,3.13 0.39,4.86 -0.34,3.46 -1.57,6.18 -3.68,8.16 -2.12,1.98 -4.87,2.96 -8.26,2.96 -0.69,-0.02 -1.36,-0.06 -2,-0.13 -0.63,-0.07 -1.25,-0.18 -1.84,-0.32zm27.77 -12.5l6.12 0 -1.87 -12.06 -4.24 12.06zm-12.6 12.94l13.95 -35.74 8.69 0 6.28 35.74 -8.17 0 -0.68 -4.01 -10.52 0 -1.54 4.01 -8.02 0zm40.08 0l2.41 -24.25c-0.9,0.51 -1.8,0.89 -2.7,1.16 -0.89,0.27 -1.78,0.41 -2.67,0.43l0.92 -9.24c1.18,-0.35 2.25,-0.86 3.23,-1.54 0.98,-0.68 1.77,-1.48 2.38,-2.38l7.39 0 -3.56 35.82 -7.39 0zm24.9 -35.78c3.14,0 5.56,1.66 7.25,4.99 1.7,3.33 2.29,7.63 1.76,12.93 -0.53,5.35 -1.96,9.67 -4.29,12.94 -2.33,3.29 -5.09,4.93 -8.28,4.93 -3.19,0 -5.6,-1.63 -7.26,-4.91 -1.65,-3.28 -2.21,-7.6 -1.68,-12.96 0.53,-5.31 1.96,-9.62 4.29,-12.94 2.33,-3.31 5.06,-4.97 8.21,-4.97zm-0.91 9.2c-0.96,0 -1.83,0.79 -2.6,2.35 -0.78,1.57 -1.28,3.61 -1.53,6.12 -0.26,2.68 -0.17,4.82 0.28,6.44 0.45,1.62 1.16,2.43 2.13,2.43 0.97,0 1.85,-0.8 2.64,-2.4 0.79,-1.61 1.31,-3.69 1.57,-6.27 0.26,-2.58 0.15,-4.68 -0.32,-6.27 -0.47,-1.6 -1.2,-2.4 -2.17,-2.4z"/>
  <path class="fil1" d="M41.76 45.65l0.98 1.59c-0.18,0.12 -0.4,0.24 -0.67,0.37 -0.26,0.14 -0.57,0.28 -0.92,0.42 -0.35,0.08 -0.77,0.2 -1.27,0.35 -0.5,0.15 -1.07,0.32 -1.7,0.52 -0.49,0.21 -0.89,0.36 -1.2,0.46 -0.32,0.1 -0.53,0.16 -0.64,0.16 -0.23,0 -0.62,0.07 -1.2,0.19 -0.58,0.13 -1.34,0.32 -2.28,0.57 -0.51,0.13 -1.04,0.26 -1.6,0.39 -0.57,0.13 -1.15,0.25 -1.75,0.35l-1.57 -0.22 -0.96 0.3c-0.32,0 -0.64,-0.01 -0.97,-0.01 -0.33,-0.01 -0.64,-0.02 -0.95,-0.04 -0.48,-0.01 -0.85,-0.06 -1.09,-0.13 -0.25,-0.08 -0.37,-0.2 -0.37,-0.35l0.16 -0.65 -0.16 -0.12c-0.57,0 -0.95,-0.05 -1.14,-0.16 -0.2,-0.1 -0.29,-0.34 -0.29,-0.72 0,-0.18 0.01,-0.46 0.03,-0.86 0.03,-0.4 0.07,-0.92 0.12,-1.56 0,-0.06 0.05,-0.18 0.16,-0.36 0.1,-0.18 0.16,-0.32 0.16,-0.39 -0.09,-0.12 -0.14,-0.21 -0.15,-0.28 -0.02,-0.07 -0.03,-0.13 -0.03,-0.19 0.03,-0.45 0.1,-1 0.22,-1.66 0.11,-0.65 0.25,-1.42 0.41,-2.32 0.21,-0.54 0.37,-1.15 0.51,-1.83 -0.03,-0.5 -0.07,-1.01 -0.1,-1.54 0.63,-1.9 1.26,-3.82 1.92,-5.74 0.1,-0.34 0.29,-0.67 0.57,-0.98 0.27,-0.3 0.61,-0.6 1,-0.89 0.16,-0.08 0.27,-0.14 0.32,-0.19 0.09,-0.11 0.19,-0.23 0.33,-0.39 0.14,-0.15 0.29,-0.33 0.48,-0.52 0.09,-0.05 0.26,-0.12 0.49,-0.21 0.22,-0.09 0.53,-0.22 0.92,-0.38 0.16,-0.09 0.36,-0.2 0.58,-0.33 0.22,-0.12 0.47,-0.28 0.76,-0.45 0.64,-0.26 1.23,-0.54 1.78,-0.83 0.54,-0.29 1.23,-0.47 2.05,-0.54 0.39,-0.01 0.78,-0.03 1.16,-0.05 0.39,-0.01 0.76,-0.04 1.11,-0.06 0.33,-0.05 0.63,-0.07 0.89,-0.08 0.16,-0.02 0.31,-0.05 0.44,-0.07 0.13,-0.02 0.24,-0.04 0.34,-0.04 0.09,0 0.23,0.01 0.41,0.02 0.17,0.02 0.41,0.05 0.71,0.08 0.24,0.01 0.44,0.02 0.61,0.02 0.16,0 0.33,-0.01 0.47,-0.02 0.68,0.14 1.17,0.34 1.49,0.6 0.32,0.26 0.48,0.58 0.48,0.94 0,0.79 -0.11,1.38 -0.34,1.76 -0.22,0.38 -0.58,0.58 -1.07,0.58 -0.37,0 -0.79,-0.13 -1.26,-0.39 -0.46,-0.26 -1.74,-0.39 -3.8,-0.39 -0.86,0.11 -1.7,0.23 -2.55,0.35 -0.09,0.09 -0.18,0.16 -0.29,0.21 -0.11,0.05 -0.21,0.08 -0.29,0.1l-0.88 -0.22c-0.27,0.07 -0.58,0.26 -0.91,0.57 -0.33,0.31 -0.69,0.73 -1.06,1.27 -0.09,0.12 -0.15,0.26 -0.19,0.43 -0.04,0.18 -0.06,0.38 -0.06,0.6 -0.3,0.83 -0.6,1.63 -0.91,2.39 -0.28,0.83 -0.51,1.46 -0.69,1.88 -0.18,0.42 -0.28,0.68 -0.32,0.77 -0.05,0.11 -0.09,0.22 -0.12,0.33 -0.03,0.1 -0.05,0.21 -0.05,0.31 0,0.15 0.04,0.26 0.12,0.35 0.09,0.08 0.22,0.12 0.38,0.12 0.15,0 0.52,-0.19 1.1,-0.56 0.58,-0.38 1.01,-0.59 1.3,-0.64 0.36,-0.06 0.72,-0.14 1.08,-0.22 0.36,-0.08 0.74,-0.18 1.13,-0.3 0.15,-0.03 0.55,-0.08 1.2,-0.13 0.65,-0.06 1.56,-0.12 2.72,-0.2l0.71 0.13 1.34 -0.17 0.71 0.22c0.17,0.12 0.33,0.26 0.46,0.42 0.15,0.16 0.28,0.35 0.4,0.54 0,0.69 -0.11,1.21 -0.33,1.56 -0.22,0.35 -0.55,0.53 -0.99,0.53l-1.38 -0.38c-1.14,0.08 -2.28,0.16 -3.4,0.23 -1.12,0.07 -2.26,0.14 -3.42,0.21 -1.41,0.19 -2.5,0.51 -3.25,0.94 -0.75,0.43 -1.18,1.01 -1.26,1.72 -0.02,0.15 -0.08,0.38 -0.18,0.69 -0.1,0.31 -0.22,0.69 -0.35,1.15l0.18 0.52c-0.15,0.49 -0.28,0.96 -0.35,1.39 -0.09,0.43 -0.13,0.82 -0.13,1.17 0,0.11 0.02,0.19 0.08,0.25 0.05,0.05 0.11,0.06 0.17,0.05 0.81,-0.05 1.45,-0.08 1.94,-0.11 0.49,-0.02 0.84,-0.03 1.03,-0.02 0.44,0.02 0.89,0.05 1.33,0.07l1.59 -0.09c0.17,-0.02 0.53,-0.12 1.1,-0.27 0.56,-0.16 1.07,-0.25 1.52,-0.25 0.49,0 0.98,-0.04 1.47,-0.1 0.5,-0.07 0.97,-0.16 1.43,-0.28 0.46,-0.12 0.9,-0.23 1.35,-0.36 0.44,-0.12 0.9,-0.24 1.35,-0.35 0.16,-0.03 0.39,-0.1 0.66,-0.19 0.28,-0.09 0.6,-0.21 0.97,-0.37zm94.9 0l0.15 -0.12c0.07,-0.16 0.22,-0.33 0.44,-0.52 0.23,-0.18 0.55,-0.37 0.98,-0.55 0.55,-0.24 0.99,-0.43 1.3,-0.58 0.31,-0.15 0.51,-0.26 0.57,-0.33 0.16,-0.12 0.26,-0.22 0.31,-0.29 0.18,-0.09 0.41,-0.21 0.68,-0.37 0.27,-0.16 0.58,-0.35 0.91,-0.58 0.12,-0.06 0.25,-0.15 0.38,-0.27 0.14,-0.12 0.27,-0.27 0.4,-0.43 0.22,-0.1 0.47,-0.23 0.75,-0.39 0.28,-0.16 0.6,-0.37 0.97,-0.62 0.42,-0.31 0.9,-0.65 1.43,-1.02 0.52,-0.37 1.12,-0.76 1.77,-1.16 0.22,-0.07 0.43,-0.12 0.62,-0.16 0.2,-0.04 0.39,-0.06 0.57,-0.06 0.76,0 1.32,0.12 1.7,0.37 0.38,0.25 0.57,0.6 0.57,1.06 0,0.12 -0.03,0.3 -0.09,0.57 -0.06,0.26 -0.12,0.59 -0.19,1 -0.23,1.15 -0.4,1.86 -0.51,2.11 -0.09,0.25 -0.46,1.04 -1.06,2.37 -0.14,0.22 -0.28,0.49 -0.41,0.8 -0.15,0.32 -0.32,0.71 -0.52,1.17 0.02,0.05 0.11,0.09 0.25,0.14 0.12,0 0.33,-0.08 0.63,-0.23 0.3,-0.15 0.7,-0.39 1.21,-0.7 0.59,-0.37 1.05,-0.65 1.4,-0.84 0.33,-0.2 0.54,-0.31 0.63,-0.35 0.2,0.31 0.39,0.59 0.55,0.85 0.17,0.26 0.31,0.51 0.43,0.73 -0.22,0.09 -0.42,0.19 -0.59,0.31 -0.17,0.11 -0.34,0.24 -0.49,0.37 -0.35,0.17 -0.77,0.35 -1.22,0.55 -0.46,0.21 -0.97,0.43 -1.53,0.67 -0.25,0.17 -0.59,0.38 -1.02,0.63 -0.42,0.25 -0.91,0.52 -1.44,0.83l-0.48 0.07c-0.23,0.22 -0.46,0.39 -0.67,0.5 -0.21,0.12 -0.4,0.2 -0.57,0.25 -0.27,0.06 -0.53,0.13 -0.81,0.19 -0.27,0.06 -0.55,0.13 -0.85,0.2 -0.19,-0.04 -0.32,-0.11 -0.4,-0.22 -0.08,-0.12 -0.12,-0.26 -0.1,-0.45 -0.25,-0.31 -0.46,-0.66 -0.6,-1.07 -0.15,-0.4 -0.23,-0.84 -0.23,-1.34 0,-0.09 0.01,-0.19 0.03,-0.3 0.02,-0.1 0.03,-0.19 0.05,-0.27 -0.12,-0.3 -0.17,-0.48 -0.17,-0.53 0,-0.34 0.19,-0.62 0.58,-0.85 0.39,-0.22 0.83,-0.33 1.32,-0.33 0.25,0 0.43,0.09 0.54,0.27 0.11,0.18 0.22,0.27 0.34,0.27 0.12,0 0.24,-0.16 0.37,-0.47 0.12,-0.32 0.24,-0.78 0.36,-1.39 0.12,-0.53 0.2,-0.99 0.23,-1.37 0.03,-0.39 0.04,-0.69 0.04,-0.9 0,-0.15 -0.04,-0.26 -0.14,-0.33 -0.08,-0.07 -0.25,-0.11 -0.46,-0.11 -0.22,0 -0.92,0.35 -2.12,1.03 -1.2,0.69 -2.87,1.7 -5,3.07 -0.07,0.08 -0.16,0.18 -0.29,0.29 -0.12,0.11 -0.26,0.25 -0.43,0.42l0.01 0.01c-0.96,0.65 -1.83,1.14 -2.62,1.47 -0.78,0.33 -1.5,0.49 -2.16,0.49 -0.26,0.12 -0.57,0.2 -0.92,0.25 -0.34,0.05 -0.75,0.08 -1.22,0.08 -0.62,0 -1.17,-0.07 -1.65,-0.19 -0.48,-0.13 -0.87,-0.32 -1.2,-0.56 -0.17,-0.12 -0.34,-0.29 -0.5,-0.51 -0.17,-0.23 -0.35,-0.49 -0.53,-0.81 -0.15,-0.25 -0.29,-0.44 -0.43,-0.56 -0.13,-0.12 -0.28,-0.18 -0.45,-0.18 -0.13,0 -0.28,0.04 -0.45,0.13 -0.17,0.09 -0.35,0.22 -0.56,0.39 -0.07,-0.17 -0.19,-0.39 -0.36,-0.64 -0.17,-0.25 -0.39,-0.56 -0.67,-0.95 0.21,-0.23 0.47,-0.47 0.79,-0.71 0.32,-0.25 0.73,-0.49 1.22,-0.75 0.05,-0.23 0.1,-0.46 0.15,-0.68 0.04,-0.22 0.08,-0.45 0.1,-0.68 0.05,-0.16 0.13,-0.35 0.24,-0.56 0.11,-0.22 0.23,-0.45 0.36,-0.7 0.15,-0.25 0.36,-0.57 0.62,-0.95 0.26,-0.38 0.6,-0.8 1.03,-1.27 0.35,-0.27 0.71,-0.55 1.1,-0.87 0.39,-0.31 0.77,-0.63 1.16,-0.95 0.18,-0.11 0.39,-0.2 0.6,-0.29 0.21,-0.09 0.44,-0.19 0.65,-0.31 0.2,-0.05 0.43,-0.08 0.68,-0.12 0.25,-0.03 0.53,-0.05 0.84,-0.05 0.41,0 0.76,0.03 1.01,0.09 0.26,0.05 0.47,0.15 0.65,0.29 0.11,0.09 0.22,0.23 0.33,0.42 0.11,0.18 0.22,0.4 0.32,0.67 0.04,0.23 0.1,0.48 0.17,0.76 0,-0.07 -0.03,-0.04 -0.09,0.08 -0.06,0.13 -0.15,0.33 -0.27,0.61l-0.22 0.54c-0.24,0.55 -0.77,1.19 -1.58,1.91 -0.83,0.72 -1.94,1.55 -3.33,2.48 -0.11,0.08 -0.22,0.18 -0.3,0.3 -0.08,0.12 -0.12,0.25 -0.12,0.39 0,0.24 0.06,0.45 0.19,0.63 0.13,0.19 0.31,0.32 0.54,0.42 0.14,0.06 0.35,0.13 0.64,0.21 0.3,0.06 0.65,0.13 1.05,0.19 0.66,-0.03 1.26,-0.11 1.8,-0.22 0.54,-0.12 1.02,-0.26 1.44,-0.42 0.09,-0.03 0.22,-0.09 0.4,-0.15 0.17,-0.06 0.34,-0.14 0.51,-0.23l-0.02 -0.03zm-95.06 0l0.16 -0.12c0.07,-0.16 0.22,-0.33 0.44,-0.52 0.23,-0.18 0.55,-0.37 0.98,-0.55 0.55,-0.24 0.99,-0.43 1.3,-0.58 0.31,-0.15 0.51,-0.26 0.57,-0.33 0.16,-0.12 0.26,-0.22 0.31,-0.29 0.18,-0.09 0.41,-0.21 0.68,-0.37 0.28,-0.16 0.58,-0.35 0.91,-0.58 0.12,-0.06 0.25,-0.15 0.38,-0.27 0.14,-0.12 0.28,-0.27 0.4,-0.43 0.22,-0.1 0.47,-0.23 0.75,-0.39 0.27,-0.16 0.6,-0.37 0.97,-0.62 0.42,-0.31 0.89,-0.65 1.43,-1.02 0.53,-0.37 1.12,-0.76 1.77,-1.16 0.22,-0.07 0.43,-0.12 0.62,-0.16 0.2,-0.04 0.39,-0.06 0.57,-0.06 0.75,0 1.32,0.12 1.7,0.37 0.38,0.25 0.57,0.6 0.57,1.06 0,0.12 -0.02,0.3 -0.09,0.57 -0.06,0.26 -0.12,0.59 -0.19,1 -0.23,1.15 -0.4,1.86 -0.51,2.11 -0.09,0.25 -0.46,1.04 -1.06,2.37 -0.14,0.22 -0.27,0.49 -0.41,0.8 -0.15,0.32 -0.32,0.71 -0.52,1.17 0.03,0.05 0.11,0.09 0.25,0.14 0.12,0 0.33,-0.08 0.63,-0.23 0.3,-0.15 0.71,-0.39 1.21,-0.7 0.59,-0.37 1.05,-0.65 1.39,-0.84 0.34,-0.2 0.54,-0.31 0.63,-0.35 0.2,0.31 0.39,0.59 0.55,0.85 0.17,0.26 0.31,0.51 0.43,0.73 -0.22,0.09 -0.41,0.19 -0.59,0.31 -0.17,0.11 -0.34,0.24 -0.49,0.37 -0.35,0.17 -0.77,0.35 -1.22,0.55 -0.46,0.21 -0.97,0.43 -1.53,0.67 -0.25,0.17 -0.59,0.38 -1.02,0.63 -0.42,0.25 -0.91,0.52 -1.45,0.83l-0.48 0.07c-0.23,0.22 -0.46,0.39 -0.67,0.5 -0.21,0.12 -0.4,0.2 -0.57,0.25 -0.26,0.06 -0.53,0.13 -0.81,0.19 -0.27,0.06 -0.55,0.13 -0.85,0.2 -0.19,-0.04 -0.32,-0.11 -0.4,-0.22 -0.09,-0.12 -0.12,-0.26 -0.11,-0.45 -0.25,-0.31 -0.45,-0.66 -0.6,-1.07 -0.15,-0.4 -0.23,-0.84 -0.23,-1.34 0,-0.09 0.01,-0.19 0.03,-0.3 0.02,-0.1 0.03,-0.19 0.05,-0.27 -0.12,-0.3 -0.17,-0.48 -0.17,-0.53 0,-0.34 0.19,-0.62 0.57,-0.85 0.39,-0.22 0.83,-0.33 1.32,-0.33 0.25,0 0.43,0.09 0.54,0.27 0.1,0.18 0.22,0.27 0.34,0.27 0.12,0 0.24,-0.16 0.37,-0.47 0.12,-0.32 0.24,-0.78 0.36,-1.39 0.12,-0.53 0.2,-0.99 0.23,-1.37 0.02,-0.39 0.04,-0.69 0.04,-0.9 0,-0.15 -0.04,-0.26 -0.14,-0.33 -0.09,-0.07 -0.25,-0.11 -0.47,-0.11 -0.22,0 -0.92,0.35 -2.12,1.03 -1.2,0.69 -2.86,1.7 -5,3.07 -0.07,0.08 -0.16,0.18 -0.29,0.29 -0.12,0.11 -0.27,0.26 -0.44,0.43 -0.07,-0.17 -0.19,-0.39 -0.36,-0.64 -0.17,-0.25 -0.39,-0.56 -0.67,-0.95zm15.78 0c0.33,-0.3 0.77,-0.65 1.31,-1.07 0.53,-0.42 1.18,-0.9 1.94,-1.43 0.05,-0.11 0.11,-0.23 0.2,-0.37 0.09,-0.14 0.21,-0.32 0.38,-0.54 0.89,-0.9 1.69,-1.77 2.39,-2.61 0.71,-0.83 1.31,-1.64 1.82,-2.43 0.14,-0.19 0.31,-0.43 0.49,-0.73 0.17,-0.29 0.4,-0.62 0.66,-0.99 0.24,-0.28 0.47,-0.49 0.7,-0.63 0.22,-0.15 0.45,-0.22 0.66,-0.22 0.34,0 0.58,0.1 0.75,0.29 0.16,0.19 0.24,0.5 0.24,0.91 0,0.23 -0.29,0.97 -0.87,2.22 -0.58,1.25 -1.45,3.02 -2.58,5.3 -0.3,0.55 -0.64,1.31 -1,2.31 -0.37,0.99 -0.8,2.22 -1.29,3.7 -0.05,0.22 -0.1,0.47 -0.16,0.76 -0.06,0.28 -0.15,0.62 -0.26,0.99 -0.29,0.73 -0.49,1.32 -0.61,1.75 -0.11,0.43 -0.16,0.72 -0.15,0.84l0.09 0.14c0.08,-0.04 0.18,-0.15 0.29,-0.33 0.11,-0.18 0.21,-0.45 0.29,-0.79 0.1,-0.31 0.17,-0.57 0.22,-0.78 0.05,-0.21 0.06,-0.39 0.03,-0.53 0.37,-0.66 0.81,-1.51 1.31,-2.55 0.51,-1.04 1.09,-2.24 1.76,-3.62 0.27,-0.33 0.57,-0.73 0.92,-1.21 0.35,-0.47 0.7,-1.04 1.09,-1.69 0.39,-0.25 0.74,-0.44 1.05,-0.56 0.31,-0.12 0.58,-0.18 0.79,-0.18 0.46,0 0.9,0.09 1.3,0.26 0.4,0.17 0.77,0.42 1.11,0.75 0.08,0.08 0.23,0.29 0.46,0.61 0.23,0.33 0.53,0.77 0.92,1.33 0.21,0.34 0.44,0.61 0.67,0.8 0.24,0.19 0.47,0.29 0.68,0.3l1.08 1.59c-0.08,0.01 -0.31,0.05 -0.67,0.12 -0.36,0.06 -0.88,0.14 -1.55,0.22l-1.71 -0.43c-0.41,-0.08 -0.92,-0.36 -1.52,-0.84 -0.59,-0.47 -1.08,-0.76 -1.45,-0.84 -0.35,0.18 -0.73,0.51 -1.14,1.01 -0.4,0.5 -0.81,1.16 -1.23,1.96 -0.1,0.19 -0.23,0.38 -0.4,0.6 -0.15,0.21 -0.32,0.45 -0.49,0.73 -0.09,0.43 -0.22,0.86 -0.35,1.25 -0.22,0.35 -0.45,0.78 -0.7,1.31 -0.25,0.53 -0.52,1.17 -0.8,1.9 -0.09,0.25 -0.3,0.63 -0.65,1.14 -0.35,0.5 -0.55,0.89 -0.62,1.15 -0.03,0.16 -0.1,0.37 -0.21,0.64 -0.11,0.26 -0.28,0.57 -0.5,0.93 -0.38,0.46 -0.73,0.8 -1.06,1.04 -0.32,0.23 -0.59,0.35 -0.8,0.35 -0.51,0 -0.89,-0.16 -1.14,-0.5 -0.25,-0.33 -0.38,-0.83 -0.38,-1.48 0,-0.99 0.09,-2.07 0.25,-3.25 0.17,-1.18 0.42,-2.45 0.76,-3.81 0.1,-0.39 0.22,-0.79 0.33,-1.18 0.12,-0.4 0.24,-0.81 0.35,-1.22 0.15,-0.48 0.26,-0.93 0.32,-1.33 0.06,-0.4 0.07,-0.76 0.03,-1.08 -0.16,0.03 -0.45,0.18 -0.84,0.43 -0.39,0.26 -0.89,0.65 -1.5,1.16 -0.07,-0.17 -0.19,-0.39 -0.36,-0.64 -0.17,-0.25 -0.4,-0.56 -0.67,-0.95zm17.62 0c0.12,-0.08 0.24,-0.18 0.37,-0.31 0.12,-0.13 0.27,-0.28 0.44,-0.44l1.94 -0.9c0.24,-0.19 0.6,-0.44 1.09,-0.74 0.49,-0.3 1.09,-0.67 1.82,-1.1 0.08,-0.13 0.22,-0.28 0.42,-0.44 0.19,-0.16 0.42,-0.33 0.69,-0.49 0.23,-0.15 0.47,-0.29 0.71,-0.42 0.23,-0.13 0.45,-0.26 0.65,-0.39 0.25,-0.18 0.49,-0.35 0.71,-0.52 0.23,-0.17 0.46,-0.34 0.7,-0.5 0.27,-0.16 0.54,-0.29 0.83,-0.38 0.28,-0.09 0.6,-0.13 0.94,-0.13 0.37,0 0.65,0.03 0.84,0.09 0.19,0.07 0.29,0.15 0.31,0.27 -0.16,0.26 -0.35,0.53 -0.52,0.79l0.15 0.16c0.74,-0.2 1.31,-0.34 1.74,-0.43 0.42,-0.09 0.69,-0.14 0.81,-0.14 1.22,0 2.14,0.25 2.75,0.76 0.61,0.51 0.92,1.28 0.92,2.31 0,0.2 -0.03,0.43 -0.1,0.69 -0.07,0.26 -0.17,0.55 -0.33,0.86 -0.17,0.35 -0.35,0.63 -0.54,0.86 -0.19,0.23 -0.37,0.4 -0.54,0.5 0.07,0.13 0.15,0.23 0.23,0.29 0.08,0.06 0.19,0.09 0.33,0.09 0.13,0 0.27,-0.03 0.41,-0.09 0.15,-0.06 0.32,-0.14 0.52,-0.26 0.17,0.25 0.33,0.52 0.49,0.79 0.17,0.27 0.33,0.53 0.49,0.8 -0.3,0.18 -0.59,0.36 -0.88,0.54 -0.29,0.17 -0.6,0.34 -0.91,0.5 -0.39,0.22 -0.75,0.38 -1.09,0.48 -0.34,0.1 -0.68,0.15 -1.02,0.15 -0.39,0 -0.7,-0.06 -0.96,-0.19 -0.25,-0.13 -0.45,-0.3 -0.6,-0.54 -0.42,0.38 -0.93,0.73 -1.52,1.05 -0.59,0.32 -1.26,0.58 -1.97,0.79 -0.42,0.14 -0.81,0.25 -1.15,0.32 -0.35,0.08 -0.65,0.11 -0.94,0.11 -0.09,0 -0.25,0.02 -0.49,0.07 -0.25,0.05 -0.45,0.07 -0.59,0.07 -0.95,0 -1.82,-0.27 -2.59,-0.83 -0.77,-0.55 -1.16,-1.17 -1.16,-1.85 0,-0.28 0.09,-0.64 0.28,-1.1 0.19,-0.45 0.28,-0.72 0.28,-0.8 0,-0.08 -0.04,-0.15 -0.12,-0.2 -0.07,-0.05 -0.18,-0.08 -0.31,-0.08 -0.09,0 -0.28,0.09 -0.61,0.26 -0.32,0.17 -0.77,0.42 -1.35,0.74 -0.05,0.05 -0.11,0.12 -0.18,0.21 -0.07,0.09 -0.17,0.19 -0.33,0.31 -0.14,-0.26 -0.29,-0.53 -0.46,-0.8 -0.17,-0.27 -0.36,-0.53 -0.57,-0.79zm12.13 -3.11c-0.08,0.01 -0.21,0.07 -0.36,0.18 -0.16,0.11 -0.32,0.24 -0.47,0.4 -0.24,0.26 -0.51,0.55 -0.81,0.86 -0.19,0.14 -0.38,0.25 -0.59,0.32 -0.21,0.08 -0.45,0.13 -0.71,0.16 -0.17,0.01 -0.34,0.12 -0.53,0.33 -0.18,0.21 -0.36,0.52 -0.55,0.92 -0.18,0.36 -0.32,0.66 -0.41,0.91 -0.08,0.25 -0.12,0.46 -0.12,0.64 0,0.32 0.11,0.56 0.35,0.72 0.23,0.16 0.59,0.24 1.08,0.24 0.78,0 1.48,-0.15 2.13,-0.44 0.64,-0.29 1.25,-0.73 1.83,-1.31 0.27,-0.22 0.51,-0.42 0.75,-0.62 0.14,-0.06 0.25,-0.17 0.32,-0.33 0.09,-0.15 0.17,-0.35 0.26,-0.57l0.45 -0.98c-0.15,-0.34 -0.29,-0.62 -0.42,-0.81 -0.14,-0.2 -0.28,-0.32 -0.4,-0.37 -0.09,-0.04 -0.27,-0.07 -0.56,-0.11 -0.28,-0.04 -0.7,-0.08 -1.23,-0.13zm6.09 3.12c0.27,-0.24 0.54,-0.49 0.81,-0.76 1.23,-0.69 2.24,-1.35 3.03,-1.98 0.78,-0.64 1.35,-1.23 1.7,-1.78l-0.25 -0.83c0.21,-0.29 0.76,-0.62 1.63,-1.01 0.86,-0.39 1.57,-0.59 2.1,-0.59 0.58,0 1.06,0.12 1.45,0.35 0.39,0.23 0.78,0.47 1.14,0.72 0.18,0.08 0.32,0.15 0.4,0.19 0.67,0.34 1.17,0.81 1.51,1.42 0.33,0.6 0.51,1.34 0.51,2.21 0,0.46 -0.26,1.12 -0.78,1.97 -0.51,0.86 -0.78,1.5 -0.78,1.94 0,0.06 0.03,0.1 0.09,0.13 0.05,0.04 0.14,0.05 0.23,0.05 0.22,0 0.48,-0.06 0.78,-0.2 0.3,-0.13 0.62,-0.31 0.97,-0.54 0.88,-0.6 1.42,-0.93 1.6,-0.99 0.19,-0.07 0.41,-0.17 0.68,-0.32 0.14,0.23 0.3,0.48 0.49,0.74 0.19,0.27 0.37,0.55 0.54,0.85 -0.15,0.09 -0.33,0.2 -0.52,0.33 -0.19,0.12 -0.42,0.26 -0.7,0.43 -0.57,0.29 -1.31,0.63 -2.23,1.04 -0.91,0.4 -2,0.87 -3.29,1.4 -0.34,0.15 -0.72,0.27 -1.15,0.36 -0.71,0 -1.24,-0.07 -1.59,-0.22 -0.36,-0.14 -0.53,-0.38 -0.53,-0.69 0,-0.13 0.04,-0.27 0.11,-0.44 0.07,-0.16 0.18,-0.35 0.31,-0.54 0.11,-0.15 0.22,-0.3 0.33,-0.46 0.12,-0.15 0.23,-0.31 0.31,-0.47 0.36,-0.72 0.65,-1.39 0.84,-2.01 0.19,-0.62 0.28,-1.17 0.28,-1.67 0,-0.6 -0.14,-1.07 -0.41,-1.39 -0.28,-0.32 -0.7,-0.51 -1.25,-0.55 -0.37,0.14 -0.78,0.33 -1.22,0.58 -0.43,0.25 -0.87,0.57 -1.33,0.94 -0.48,0.42 -0.92,0.75 -1.31,1.01 -0.39,0.26 -0.71,0.44 -0.95,0.53 -0.16,0.17 -0.4,0.37 -0.73,0.59 -0.34,0.22 -0.78,0.45 -1.33,0.7 -0.03,0.05 -0.08,0.11 -0.16,0.21 -0.07,0.09 -0.17,0.19 -0.33,0.31 -0.14,-0.26 -0.29,-0.53 -0.47,-0.79 -0.17,-0.26 -0.36,-0.52 -0.57,-0.8zm16.81 -0.01l0.1 -0.13c0.11,-0.09 0.23,-0.2 0.4,-0.35 0.15,-0.13 0.35,-0.29 0.57,-0.48 1.2,-0.76 2.36,-1.65 3.49,-2.7 1.14,-1.04 2.26,-2.24 3.36,-3.6 0.14,-0.13 0.29,-0.29 0.46,-0.5 0.17,-0.21 0.35,-0.46 0.56,-0.77 0,-0.07 -0.03,-0.12 -0.08,-0.15 -0.05,-0.04 -0.14,-0.05 -0.26,-0.05 -0.1,0 -0.26,0.02 -0.49,0.06 -0.22,0.04 -0.4,0.06 -0.52,0.06l-3.15 0c-0.14,0 -0.35,-0.01 -0.67,-0.02 -0.31,-0.01 -0.53,-0.02 -0.66,-0.02 -0.17,-0.05 -0.33,-0.11 -0.46,-0.15 -0.14,-0.03 -0.28,-0.08 -0.42,-0.13 -0.2,-0.04 -0.35,-0.11 -0.46,-0.18 -0.11,-0.08 -0.16,-0.17 -0.16,-0.27 0,-0.73 0.11,-1.29 0.34,-1.68 0.22,-0.39 0.57,-0.58 1.04,-0.58 0.47,0 0.91,0.01 1.33,0.04 0.41,0.03 0.77,0.07 1.1,0.11 0.25,-0.04 0.48,-0.07 0.71,-0.11 0.45,0 0.83,0.01 1.15,0.03 0.33,0.02 0.57,0.05 0.73,0.09 0.22,-0.04 0.44,-0.07 0.65,-0.09 0.21,-0.03 0.44,-0.06 0.7,-0.09l0.83 0.17c0.59,-0.05 1.21,-0.61 1.87,-1.69 0.66,-1.08 1.37,-1.62 2.13,-1.62 0.41,0 0.71,0.09 0.93,0.26 0.22,0.17 0.33,0.42 0.33,0.76 0,0.26 -0.12,0.61 -0.34,1.04 -0.22,0.43 -0.35,0.76 -0.39,0.97 0.03,0.05 0.08,0.1 0.14,0.15 0.06,0.05 0.15,0.11 0.27,0.18 0.1,0.05 0.17,0.12 0.21,0.23 0.04,0.11 0.06,0.25 0.06,0.41 0,0.69 -0.04,1.22 -0.14,1.59 -0.09,0.37 -0.24,0.56 -0.44,0.57l-1.71 0.24c-0.03,0.12 -0.08,0.26 -0.12,0.42 -0.05,0.16 -0.12,0.36 -0.21,0.57 -0.28,0.57 -0.6,1.3 -0.96,2.18 -0.34,0.87 -0.74,1.91 -1.18,3.11 -0.27,0.96 -0.47,1.74 -0.61,2.33 -0.15,0.6 -0.21,1 -0.21,1.2 0,0.18 0.04,0.32 0.13,0.41 0.08,0.09 0.21,0.14 0.38,0.14 0.09,0 0.46,-0.16 1.09,-0.5 0.63,-0.33 1.51,-0.83 2.63,-1.48l0.98 1.59c-0.16,0.13 -0.41,0.27 -0.71,0.45 -0.3,0.17 -0.66,0.36 -1.09,0.55 -0.16,0.13 -0.38,0.27 -0.63,0.42 -0.25,0.16 -0.53,0.34 -0.83,0.55 -0.3,0.24 -0.6,0.46 -0.9,0.69 -0.29,0.23 -0.59,0.46 -0.89,0.67 -0.41,0.31 -0.79,0.52 -1.18,0.65 -0.38,0.13 -0.75,0.2 -1.08,0.2 -0.74,0 -1.29,-0.15 -1.65,-0.45 -0.36,-0.3 -0.54,-0.76 -0.54,-1.37 0,-0.67 0.04,-1.25 0.1,-1.74 0.06,-0.49 0.17,-0.89 0.33,-1.19 0.06,-0.09 0.11,-0.17 0.15,-0.24 0,-0.11 0.03,-0.27 0.08,-0.46 0.05,-0.19 0.11,-0.42 0.17,-0.69 0.1,-0.44 0.21,-0.89 0.33,-1.34 0.19,-0.27 0.38,-0.56 0.58,-0.87 0,-0.06 -0.07,-0.11 -0.21,-0.15l-0.25 0.1c-0.25,0.28 -0.58,0.56 -0.98,0.87 -0.41,0.3 -0.89,0.62 -1.44,0.96 -0.86,0.56 -1.73,1.13 -2.62,1.7 -0.05,0.06 -0.15,0.14 -0.27,0.26 -0.14,0.11 -0.28,0.26 -0.46,0.43 -0.09,-0.14 -0.19,-0.31 -0.32,-0.53 -0.13,-0.21 -0.27,-0.45 -0.4,-0.73 -0.03,-0.07 -0.08,-0.14 -0.13,-0.19 -0.05,-0.05 -0.11,-0.1 -0.18,-0.14zm22.02 -5.56c-0.37,0 -0.87,0.33 -1.5,0.99 -0.63,0.66 -0.94,1.15 -0.94,1.46 0,0.06 0.02,0.12 0.06,0.15 0.04,0.03 0.14,0.04 0.27,0.04 0.19,0 0.34,-0.07 0.46,-0.2 0.12,-0.13 0.23,-0.25 0.34,-0.37 0.18,-0.12 0.36,-0.24 0.54,-0.37 0.18,-0.14 0.35,-0.26 0.51,-0.39 0.21,-0.16 0.36,-0.32 0.46,-0.48 0.1,-0.16 0.15,-0.32 0.15,-0.48 0,-0.1 -0.02,-0.19 -0.08,-0.25 -0.06,-0.06 -0.15,-0.09 -0.27,-0.09z"/>
 </g>
</svg>
